# xmcd
#
# Track frame offsets:
#	150
#	15381
#	35702
#	58316
#	83433
#	158937
#
# Disc length: 2380 seconds
#
# Revision: 2
# Processed by: cddbd v1.5.1PL0 Copyright (c) Steve Scherf et al.
# Submitted via: EasyCDDAExtractor 5.1.0
#
DISCID=41094a06
DTITLE=Glenn Hughes - Plzen Czech Republic 10-03-05 Disc 1
DYEAR=2005
DGENRE=Hard Rock
TTITLE0=Soul Mover
TTITLE1=Orion
TTITLE2=Land Of The Livin'
TTITLE3=Mistreated
TTITLE4=Can't Stop The Flood
TTITLE5=Let It Go
EXTD=
EXTT0=
EXTT1=
EXTT2=
EXTT3=
EXTT4=
EXTT5=
PLAYORDER=
